<?xml version="1.0" encoding="UTF-8"?>
<svg xmlns="http://www.w3.org/2000/svg" xmlns:xlink="http://www.w3.org/1999/xlink" width="2500" height="2500" viewBox="0 0 2500 2500">
<rect x="-250" y="-250" width="3000" height="3000" fill="rgb(0.39978%, 9.594727%, 18.797302%)" fill-opacity="1"/>
<path fill-rule="nonzero" fill="rgb(91.40625%, 48.608398%, 35.693359%)" fill-opacity="1" d="M 680.886719 1750.644531 L 680.886719 1791.417969 L 584.460938 1791.417969 L 584.460938 1836.359375 L 676.125 1836.359375 L 676.125 1877.132812 L 584.460938 1877.132812 L 584.460938 1958.679688 L 538.03125 1958.679688 L 538.03125 1750.644531 L 680.886719 1750.644531 "/>
<path fill-rule="nonzero" fill="rgb(91.40625%, 48.608398%, 35.693359%)" fill-opacity="1" d="M 751.050781 1750.644531 L 797.476562 1750.644531 L 797.476562 1958.679688 L 751.050781 1958.679688 L 751.050781 1750.644531 "/>
<path fill-rule="nonzero" fill="rgb(91.40625%, 48.608398%, 35.693359%)" fill-opacity="1" d="M 967.636719 1790.824219 L 967.636719 1958.679688 L 921.210938 1958.679688 L 921.210938 1790.824219 L 862.28125 1790.824219 L 862.28125 1750.644531 L 1026.570312 1750.644531 L 1026.570312 1790.824219 L 967.636719 1790.824219 "/>
<path fill-rule="nonzero" fill="rgb(91.40625%, 48.608398%, 35.693359%)" fill-opacity="1" d="M 1236.910156 1750.644531 L 1283.328125 1750.644531 L 1283.328125 1958.679688 L 1236.910156 1958.679688 L 1137.800781 1828.324219 L 1137.800781 1958.679688 L 1091.371094 1958.679688 L 1091.371094 1750.644531 L 1134.820312 1750.644531 L 1236.910156 1884.574219 L 1236.910156 1750.644531 "/>
<path fill-rule="nonzero" fill="rgb(91.40625%, 48.608398%, 35.693359%)" fill-opacity="1" d="M 1515.398438 1750.644531 L 1515.398438 1792.015625 L 1411.828125 1792.015625 L 1411.828125 1834.871094 L 1504.980469 1834.871094 L 1504.980469 1874.453125 L 1411.828125 1874.453125 L 1411.828125 1917.609375 L 1518.671875 1917.609375 L 1518.671875 1958.679688 L 1365.398438 1958.679688 L 1365.398438 1750.644531 L 1515.398438 1750.644531 "/>
<path fill-rule="nonzero" fill="rgb(91.40625%, 48.608398%, 35.693359%)" fill-opacity="1" d="M 1657.878906 1786.65625 C 1650.140625 1786.65625 1644.039062 1788.492188 1639.578125 1792.164062 C 1635.109375 1795.835938 1632.878906 1800.695312 1632.878906 1806.746094 C 1632.878906 1812.796875 1635.609375 1817.609375 1641.070312 1821.179688 C 1646.519531 1824.753906 1659.121094 1828.96875 1678.859375 1833.828125 C 1698.609375 1838.691406 1713.929688 1845.980469 1724.839844 1855.703125 C 1735.761719 1865.425781 1741.210938 1879.613281 1741.210938 1898.261719 C 1741.210938 1916.914062 1734.21875 1932.042969 1720.230469 1943.648438 C 1706.238281 1955.257812 1687.839844 1961.058594 1665.019531 1961.058594 C 1632.089844 1961.058594 1602.429688 1948.859375 1576.039062 1924.453125 L 1603.710938 1890.523438 C 1626.140625 1910.167969 1646.871094 1919.988281 1665.921875 1919.988281 C 1674.449219 1919.988281 1681.140625 1918.152344 1686.011719 1914.484375 C 1690.871094 1910.8125 1693.300781 1905.851562 1693.300781 1899.601562 C 1693.300781 1893.351562 1690.71875 1888.390625 1685.558594 1884.722656 C 1680.398438 1881.050781 1670.179688 1877.332031 1654.910156 1873.5625 C 1630.699219 1867.808594 1612.988281 1860.316406 1601.78125 1851.089844 C 1590.570312 1841.863281 1584.96875 1827.382812 1584.96875 1807.640625 C 1584.96875 1787.898438 1592.058594 1772.671875 1606.238281 1761.953125 C 1620.429688 1751.242188 1638.140625 1745.882812 1659.371094 1745.882812 C 1673.261719 1745.882812 1687.148438 1748.265625 1701.039062 1753.027344 C 1714.921875 1757.789062 1727.03125 1764.535156 1737.339844 1773.265625 L 1713.828125 1807.191406 C 1695.78125 1793.503906 1677.128906 1786.65625 1657.878906 1786.65625 "/>
<path fill-rule="nonzero" fill="rgb(91.40625%, 48.608398%, 35.693359%)" fill-opacity="1" d="M 1878.640625 1786.65625 C 1870.898438 1786.65625 1864.800781 1788.492188 1860.328125 1792.164062 C 1855.871094 1795.835938 1853.640625 1800.695312 1853.640625 1806.746094 C 1853.640625 1812.796875 1856.371094 1817.609375 1861.820312 1821.179688 C 1867.28125 1824.753906 1879.878906 1828.96875 1899.621094 1833.828125 C 1919.359375 1838.691406 1934.691406 1845.980469 1945.601562 1855.703125 C 1956.511719 1865.425781 1961.96875 1879.613281 1961.96875 1898.261719 C 1961.96875 1916.914062 1954.980469 1932.042969 1940.988281 1943.648438 C 1927 1955.257812 1908.601562 1961.058594 1885.78125 1961.058594 C 1852.839844 1961.058594 1823.179688 1948.859375 1796.789062 1924.453125 L 1824.46875 1890.523438 C 1846.890625 1910.167969 1867.628906 1919.988281 1886.671875 1919.988281 C 1895.199219 1919.988281 1901.898438 1918.152344 1906.761719 1914.484375 C 1911.621094 1910.8125 1914.050781 1905.851562 1914.050781 1899.601562 C 1914.050781 1893.351562 1911.46875 1888.390625 1906.308594 1884.722656 C 1901.160156 1881.050781 1890.941406 1877.332031 1875.660156 1873.5625 C 1851.460938 1867.808594 1833.75 1860.316406 1822.539062 1851.089844 C 1811.328125 1841.863281 1805.71875 1827.382812 1805.71875 1807.640625 C 1805.71875 1787.898438 1812.808594 1772.671875 1827 1761.953125 C 1841.191406 1751.242188 1858.890625 1745.882812 1880.128906 1745.882812 C 1894.011719 1745.882812 1907.898438 1748.265625 1921.789062 1753.027344 C 1935.679688 1757.789062 1947.78125 1764.535156 1958.101562 1773.265625 L 1934.589844 1807.191406 C 1916.53125 1793.503906 1897.878906 1786.65625 1878.640625 1786.65625 "/>
<path fill-rule="nonzero" fill="rgb(100%, 100%, 100%)" fill-opacity="1" d="M 988.214844 2054.34375 C 978.429688 2054.34375 970.238281 2047.402344 968.300781 2038.183594 C 968.019531 2036.832031 967.871094 2035.433594 967.871094 2034 C 967.871094 2032.625 968.007812 2031.277344 968.269531 2029.980469 C 970.140625 2020.679688 978.371094 2013.65625 988.214844 2013.65625 C 996.613281 2013.65625 1003.839844 2018.773438 1006.941406 2026.054688 L 1015.640625 2026.054688 C 1012.199219 2014.152344 1001.21875 2005.449219 988.214844 2005.449219 C 973.8125 2005.449219 961.898438 2016.117188 959.949219 2029.980469 C 959.757812 2031.292969 959.664062 2032.636719 959.664062 2034 C 959.664062 2035.421875 959.769531 2036.820312 959.96875 2038.183594 C 961.992188 2051.96875 973.867188 2062.550781 988.214844 2062.550781 C 1000.898438 2062.550781 1011.660156 2054.273438 1015.371094 2042.824219 L 1006.539062 2042.824219 C 1003.25 2049.636719 996.269531 2054.34375 988.214844 2054.34375 "/>
<path fill-rule="nonzero" fill="rgb(100%, 100%, 100%)" fill-opacity="1" d="M 1080.929688 2036.144531 L 1117.519531 2036.144531 L 1117.519531 2027.9375 L 1080.929688 2027.9375 L 1080.929688 2017.964844 L 1072.71875 2017.964844 L 1072.71875 2062.550781 L 1123.039062 2062.550781 L 1123.039062 2054.34375 L 1080.929688 2054.34375 Z M 1072.71875 2005.65625 L 1072.71875 2013.863281 L 1123.039062 2013.863281 L 1123.039062 2005.65625 L 1072.71875 2005.65625 "/>
<path fill-rule="nonzero" fill="rgb(100%, 100%, 100%)" fill-opacity="1" d="M 1177.371094 2062.550781 L 1185.578125 2062.550781 L 1185.578125 2031.136719 L 1177.371094 2022.929688 Z M 1214.328125 2005.632812 L 1214.328125 2042.476562 L 1177.371094 2005.519531 L 1177.371094 2017.125 L 1185.578125 2025.332031 L 1185.578125 2025.328125 L 1214.328125 2054.082031 L 1222.53125 2062.289062 L 1222.53125 2005.632812 L 1214.328125 2005.632812 "/>
<path fill-rule="nonzero" fill="rgb(100%, 100%, 100%)" fill-opacity="1" d="M 1305.839844 2062.550781 L 1305.839844 2017.972656 L 1297.640625 2017.972656 L 1297.640625 2062.550781 Z M 1327.558594 2013.871094 L 1327.558594 2005.664062 L 1276.800781 2005.664062 L 1276.800781 2013.871094 L 1327.558594 2013.871094 "/>
<path fill-rule="nonzero" fill="rgb(100%, 100%, 100%)" fill-opacity="1" d="M 1390.960938 2036.144531 L 1427.550781 2036.144531 L 1427.550781 2027.9375 L 1390.960938 2027.9375 L 1390.960938 2017.964844 L 1382.75 2017.964844 L 1382.75 2062.550781 L 1433.058594 2062.550781 L 1433.058594 2054.34375 L 1390.960938 2054.34375 Z M 1382.75 2005.65625 L 1382.75 2013.863281 L 1433.058594 2013.863281 L 1433.058594 2005.65625 L 1382.75 2005.65625 "/>
<path fill-rule="nonzero" fill="rgb(100%, 100%, 100%)" fill-opacity="1" d="M 1522.421875 2033.167969 L 1521.429688 2031.550781 C 1521.488281 2031.515625 1521.539062 2031.480469 1521.589844 2031.445312 C 1521.621094 2031.433594 1521.640625 2031.417969 1521.660156 2031.402344 C 1521.808594 2031.308594 1521.960938 2031.210938 1522.101562 2031.113281 C 1522.109375 2031.109375 1522.121094 2031.101562 1522.128906 2031.097656 C 1522.28125 2030.992188 1522.441406 2030.886719 1522.589844 2030.777344 C 1522.910156 2030.546875 1523.230469 2030.3125 1523.550781 2030.070312 C 1523.628906 2030.003906 1523.71875 2029.9375 1523.808594 2029.867188 C 1523.929688 2029.773438 1524.050781 2029.679688 1524.160156 2029.578125 C 1524.328125 2029.441406 1524.5 2029.304688 1524.660156 2029.164062 C 1524.679688 2029.152344 1524.691406 2029.140625 1524.710938 2029.125 C 1524.828125 2029.019531 1524.960938 2028.90625 1525.089844 2028.792969 C 1525.460938 2028.464844 1525.828125 2028.121094 1526.179688 2027.769531 C 1530.011719 2023.992188 1532.769531 2019.136719 1533.980469 2013.699219 C 1534.429688 2011.703125 1534.660156 2009.628906 1534.660156 2007.503906 C 1534.660156 2006.824219 1534.628906 2006.15625 1534.589844 2005.492188 L 1487.398438 2005.492188 L 1487.398438 2062.550781 L 1495.601562 2062.550781 L 1495.601562 2035.976562 L 1506.179688 2035.976562 C 1506.378906 2035.976562 1506.570312 2035.976562 1506.769531 2035.972656 C 1506.871094 2035.96875 1506.96875 2035.964844 1507.070312 2035.964844 C 1507.230469 2035.957031 1507.390625 2035.953125 1507.550781 2035.945312 C 1507.589844 2035.945312 1507.628906 2035.941406 1507.671875 2035.9375 C 1507.890625 2035.929688 1508.109375 2035.914062 1508.328125 2035.898438 C 1508.339844 2035.898438 1508.351562 2035.894531 1508.351562 2035.894531 C 1508.589844 2035.878906 1508.828125 2035.855469 1509.058594 2035.832031 C 1509.261719 2035.8125 1509.460938 2035.789062 1509.648438 2035.765625 C 1509.730469 2035.757812 1509.808594 2035.746094 1509.890625 2035.738281 C 1510.070312 2035.714844 1510.261719 2035.6875 1510.441406 2035.660156 C 1510.511719 2035.648438 1510.589844 2035.636719 1510.660156 2035.625 C 1510.808594 2035.605469 1510.941406 2035.582031 1511.078125 2035.554688 C 1511.578125 2035.472656 1512.070312 2035.371094 1512.558594 2035.261719 C 1512.769531 2035.210938 1512.980469 2035.160156 1513.191406 2035.105469 C 1513.238281 2035.097656 1513.289062 2035.082031 1513.339844 2035.070312 C 1513.488281 2035.035156 1513.628906 2034.992188 1513.78125 2034.953125 C 1513.808594 2034.941406 1513.839844 2034.933594 1513.878906 2034.921875 L 1514.328125 2035.660156 L 1530.71875 2062.550781 L 1540.339844 2062.550781 Z M 1514.230469 2026.117188 C 1511.71875 2027.203125 1508.988281 2027.769531 1506.179688 2027.769531 L 1495.601562 2027.769531 L 1495.601562 2013.699219 L 1525.488281 2013.699219 C 1524.488281 2016.792969 1522.761719 2019.609375 1520.410156 2021.929688 C 1518.601562 2023.722656 1516.511719 2025.132812 1514.230469 2026.117188 "/>
<path fill-rule="evenodd" fill="rgb(91.40625%, 48.608398%, 35.693359%)" fill-opacity="1" d="M 1250 430.128906 C 1075.640625 430.96875 917.996094 502.390625 804.148438 617.28125 C 690.707031 731.761719 620.730469 889.390625 621.484375 1063.128906 C 622.101562 1236.339844 692.964844 1392.949219 806.894531 1506.238281 C 920.574219 1619.273438 1077.179688 1689.230469 1250 1688.867188 C 1317.480469 1688.867188 1382.460938 1678.109375 1443.390625 1658.363281 C 1538.410156 1627.566406 1623.539062 1574.734375 1692.75 1505.878906 C 1806.539062 1392.660156 1877.308594 1236.179688 1877.890625 1063.128906 C 1878.71875 889.539062 1808.839844 732.03125 1695.570312 617.570312 C 1581.828125 502.640625 1424.300781 431.109375 1250 430.128906 Z M 1250 444.769531 C 1421.019531 443.808594 1576.339844 512.429688 1689.109375 624.019531 C 1802.339844 736.078125 1872.648438 891.398438 1873.480469 1063.128906 C 1874.050781 1235.410156 1804.648438 1391.769531 1691.929688 1505.0625 C 1623.140625 1574.203125 1538.230469 1627.324219 1443.351562 1658.265625 C 1382.46875 1678.117188 1317.46875 1688.765625 1250 1688.765625 C 1077.488281 1688.402344 921.261719 1618.179688 808.429688 1504.703125 C 695.847656 1391.480469 626.539062 1235.261719 627.152344 1063.128906 C 627.898438 891.550781 698.113281 736.351562 811.175781 624.308594 C 923.832031 512.679688 1079.03125 443.949219 1250 444.769531 "/>
<path fill-rule="evenodd" fill="rgb(91.40625%, 48.608398%, 35.693359%)" fill-opacity="1" d="M 973.988281 1596.613281 C 781.222656 1496.601562 649.390625 1295.140625 649.390625 1063.128906 C 649.390625 731.648438 918.515625 462.519531 1250 462.519531 C 1581.488281 462.519531 1850.609375 731.648438 1850.609375 1063.128906 C 1850.609375 1394.621094 1581.488281 1663.742188 1250 1663.742188 C 1165.011719 1663.742188 1084.109375 1646.050781 1010.800781 1614.148438 C 1033.191406 1611.050781 1055.730469 1609.160156 1078.300781 1607.695312 C 1126.140625 1604.59375 1174.769531 1604.5625 1222.578125 1608.605469 C 1232.960938 1609.480469 1273.238281 1618.152344 1281.558594 1610.46875 C 1303.640625 1590.09375 1292.328125 1499.589844 1295.148438 1470.351562 C 1296.988281 1451.238281 1302.410156 1431.679688 1309.070312 1413.710938 C 1311.398438 1407.421875 1314.378906 1396.210938 1320.738281 1392.609375 C 1328.339844 1388.320312 1367.28125 1410.398438 1375.660156 1414.289062 C 1427.71875 1438.429688 1499.269531 1454.011719 1544.820312 1501.351562 C 1566.539062 1523.929688 1592.539062 1512.730469 1617.378906 1486.441406 C 1618.261719 1482.160156 1619.261719 1477.898438 1620.339844 1473.679688 C 1624.390625 1457.839844 1629.570312 1441.960938 1636.929688 1427.320312 C 1647.398438 1406.46875 1660.808594 1387.449219 1669.378906 1365.628906 C 1677.898438 1343.96875 1683.121094 1319.148438 1685.019531 1295.941406 C 1685.609375 1288.640625 1686.148438 1281.320312 1685.921875 1274 C 1685.839844 1271.570312 1685.820312 1269.121094 1685.5 1266.710938 C 1685.339844 1265.488281 1684.019531 1262.441406 1685.089844 1263.050781 C 1685.308594 1263.179688 1688.390625 1275.761719 1688.621094 1276.71875 C 1692.71875 1293.808594 1693.449219 1311.921875 1689.398438 1329.101562 C 1679.609375 1370.628906 1651.109375 1404.929688 1646.730469 1448.179688 C 1675.960938 1403.121094 1699.761719 1345.980469 1707.011719 1315.058594 C 1715.050781 1280.730469 1715.519531 1246.878906 1723.78125 1212.648438 C 1731.648438 1180.050781 1759.070312 1147.089844 1757.941406 1113.101562 C 1756.921875 1082.75 1733.058594 1061.558594 1716.699219 1038.230469 C 1704.851562 1021.328125 1695.691406 1000.878906 1682.261719 985.371094 C 1658.039062 957.398438 1633.261719 965.78125 1609.511719 991.761719 C 1600.628906 1001.460938 1579.351562 1007.851562 1577.109375 1020.769531 C 1573.78125 1039.96875 1577.371094 1071.699219 1598.160156 1085.398438 C 1600.539062 1086.96875 1603.589844 1086.648438 1606.789062 1085.910156 C 1609.828125 1065.78125 1587.140625 1047.710938 1587.28125 1026.898438 C 1587.378906 1012.480469 1598.191406 1001.921875 1612.058594 999.578125 C 1621.589844 997.980469 1635.289062 1003.121094 1635.640625 1014.398438 C 1635.671875 1015.648438 1635.570312 1016.898438 1635.308594 1018.121094 C 1633.320312 1027.46875 1623.460938 1019.179688 1618.558594 1017.53125 C 1611.140625 1015.03125 1601.699219 1016.570312 1596.988281 1023.339844 C 1592.730469 1029.46875 1594.25 1036.609375 1598.628906 1042.179688 C 1605.578125 1051 1614.421875 1057.929688 1619.878906 1067.941406 C 1622.878906 1073.449219 1623.820312 1079.730469 1622.359375 1085.808594 C 1627.511719 1089.171875 1631.269531 1095.421875 1635.800781 1099.269531 C 1640.429688 1103.199219 1647.578125 1105.441406 1653.949219 1108.320312 C 1664.371094 1099.300781 1676.320312 1091.96875 1689.199219 1088.191406 C 1696.339844 1086.089844 1703.359375 1086.121094 1710.640625 1087.429688 C 1712.628906 1087.78125 1714.5 1088.308594 1716.398438 1088.988281 C 1717.269531 1089.300781 1718.148438 1089.589844 1719.03125 1089.859375 C 1719.308594 1089.949219 1720.171875 1090.191406 1719.878906 1090.128906 C 1713.609375 1088.871094 1707.121094 1090.441406 1701.089844 1092.25 C 1688.261719 1096.128906 1676.078125 1102.730469 1666.179688 1111.800781 C 1665.390625 1112.53125 1664.460938 1113.351562 1663.488281 1114.261719 C 1666.46875 1117.191406 1668.25 1120.988281 1667.808594 1126.398438 C 1664.570312 1166.300781 1618.570312 1206.550781 1593.441406 1234.558594 C 1588.671875 1239.878906 1581.25 1244.199219 1573.429688 1248.410156 C 1571.660156 1255.828125 1568.320312 1262.839844 1563.261719 1268.808594 C 1555.328125 1278.160156 1544.429688 1284.441406 1536.101562 1293.449219 C 1526.53125 1303.808594 1519.28125 1316.359375 1513.96875 1329.359375 C 1509.671875 1339.890625 1506.429688 1351 1504.578125 1362.230469 C 1503.949219 1366.070312 1503.53125 1369.980469 1503.320312 1373.871094 C 1503.320312 1373.910156 1503.328125 1377.191406 1503.148438 1377.21875 C 1502.578125 1377.308594 1501.460938 1370.789062 1501.390625 1370.421875 C 1500.230469 1363.808594 1499.539062 1357.089844 1500.210938 1350.378906 C 1501.578125 1336.621094 1508.421875 1324.171875 1513.148438 1311.398438 C 1518.628906 1296.640625 1521.691406 1280.769531 1521.230469 1265.011719 C 1521.140625 1261.808594 1520.929688 1258.609375 1520.640625 1255.421875 C 1512.621094 1241.160156 1501.328125 1227.789062 1489.949219 1217.289062 C 1476.058594 1204.46875 1456.371094 1203.019531 1440.910156 1194.351562 C 1438.738281 1200.371094 1436.910156 1206.441406 1434.949219 1211.921875 C 1426.691406 1235.089844 1415.121094 1256.929688 1394.210938 1270.898438 C 1385.691406 1276.589844 1376.800781 1281.53125 1367.089844 1284.828125 C 1365.441406 1285.390625 1359.628906 1288.398438 1357.808594 1287.308594 C 1357.738281 1287.261719 1360.070312 1285.769531 1365.449219 1282.46875 C 1370.671875 1279.261719 1375.589844 1275.628906 1380.230469 1271.640625 C 1393.261719 1260.460938 1403.859375 1246.398438 1409.839844 1230.191406 C 1417.609375 1209.109375 1410.898438 1187.75 1417.050781 1168.78125 C 1417.429688 1167.589844 1417.859375 1166.441406 1418.308594 1165.320312 C 1411.210938 1143.96875 1414.78125 1122.109375 1389.339844 1099.21875 C 1376.058594 1087.269531 1357.859375 1078.070312 1340.839844 1072.859375 C 1318.558594 1066.050781 1286.160156 1067.300781 1273.75 1044.050781 C 1270.441406 1042.621094 1267.070312 1041.359375 1263.589844 1040.300781 C 1246.550781 1035.101562 1223.28125 1026.621094 1214.871094 1009.539062 C 1208.738281 997.078125 1209.070312 982.578125 1204.800781 969.480469 C 1203 963.96875 1200.921875 958.460938 1198.269531 953.289062 C 1196.648438 950.109375 1193.519531 946.171875 1192.699219 942.648438 C 1192.609375 942.25 1193.328125 943.179688 1193.621094 943.480469 C 1194.089844 943.988281 1194.558594 944.511719 1195.019531 945.03125 C 1196.730469 946.929688 1198.339844 948.941406 1199.839844 951.011719 C 1203.890625 956.589844 1207.261719 962.789062 1209.921875 969.140625 C 1213.53125 977.738281 1216.191406 986.75 1221.121094 994.738281 C 1227.671875 1005.351562 1239.261719 1014.289062 1250.601562 1019.21875 C 1257.710938 1022.308594 1265.53125 1023.460938 1273.410156 1024.378906 C 1278.769531 1020.960938 1288.828125 1021.289062 1294.378906 1014.460938 C 1298.820312 1009 1299.421875 1001.398438 1303.898438 995.988281 C 1308.050781 990.980469 1315.28125 993.679688 1320.21875 990.148438 C 1320.53125 989.929688 1320.761719 989.679688 1320.929688 989.339844 C 1321.929688 987.351562 1319.609375 985.230469 1320.890625 983.070312 C 1321.839844 981.460938 1322.960938 980.328125 1324.101562 979.359375 C 1320.558594 979.128906 1317.011719 978.828125 1313.5 978.398438 C 1310.5 978.039062 1307.519531 977.558594 1304.550781 977.011719 C 1302.738281 976.679688 1301.289062 976.378906 1299.5 975.980469 C 1298.179688 975.679688 1291.929688 974.941406 1291.449219 973.160156 C 1291.269531 972.519531 1292.808594 972.28125 1293.03125 972.230469 C 1295.28125 971.789062 1297.628906 971.789062 1299.898438 971.621094 C 1309.140625 970.941406 1318.359375 970.480469 1327.511719 968.941406 C 1328.730469 968.738281 1329.941406 968.558594 1331.160156 968.378906 C 1331.261719 967.238281 1331.410156 965.878906 1331.738281 965.710938 C 1343.070312 960.039062 1357.140625 965.03125 1365.660156 952.121094 C 1372.960938 941.070312 1364.328125 919.890625 1367.429688 906.480469 C 1370.179688 894.640625 1382.621094 887.78125 1385.230469 876.921875 C 1387.171875 868.871094 1384.578125 859.671875 1385.558594 851.371094 C 1389.410156 818.828125 1400.078125 790.988281 1392.640625 757.660156 C 1389.761719 744.710938 1383.460938 734.148438 1374.851562 724.269531 C 1373.28125 722.46875 1363.441406 712.308594 1363.039062 709.328125 C 1343.71875 697.121094 1329.089844 678.261719 1308.328125 668.261719 C 1278.089844 653.679688 1241.460938 660.660156 1210.570312 669.191406 C 1204.441406 670.878906 1151.398438 687.859375 1131.859375 796.828125 C 1128.699219 814.46875 1131.53125 837.628906 1121.601562 853.398438 C 1119.511719 856.730469 1116.429688 860.039062 1112.789062 863.261719 C 1114.519531 877.628906 1113.261719 892.070312 1108.890625 906.300781 C 1102.738281 926.269531 1091.488281 944.761719 1087.960938 965.511719 C 1085.621094 979.238281 1086.820312 992.75 1090.179688 1006.191406 C 1091.378906 1011 1092.800781 1015.769531 1094.25 1020.5 C 1094.359375 1020.859375 1096.230469 1026.539062 1095.691406 1026.339844 C 1092.03125 1024.980469 1083.960938 1004 1082.738281 1000.429688 C 1071 966.210938 1084.691406 934.109375 1089.789062 900.160156 C 1090.878906 892.890625 1091.628906 885.578125 1091.648438 878.261719 C 1087.109375 881.039062 1082.769531 883.539062 1079.140625 885.660156 C 1074.660156 888.261719 1067.109375 893.011719 1061.671875 891.359375 C 1055.761719 889.558594 1051.261719 882.851562 1046.828125 878.929688 C 1040.289062 873.140625 1031.429688 868.671875 1022.941406 866.710938 C 1005.078125 862.570312 985.085938 868.539062 967.882812 861.859375 C 957.90625 857.988281 956.476562 847.210938 947.589844 842.269531 C 941.113281 838.660156 933.257812 837.328125 926.953125 833.488281 C 910.414062 843.269531 890.785156 847.828125 871.304688 847.25 C 856.414062 846.800781 841.882812 842.011719 826.894531 843.511719 C 818.933594 844.308594 811.097656 846.929688 804.230469 851.03125 C 803.132812 851.679688 795.03125 857.949219 794.328125 857.949219 C 793.921875 857.949219 794.738281 857.25 794.960938 856.910156 C 795.769531 855.691406 796.804688 854.578125 797.746094 853.460938 C 800.0625 850.699219 802.8125 848.238281 805.8125 846.230469 C 814.957031 840.121094 825.011719 839.171875 835.734375 839.949219 C 856.753906 841.488281 877.203125 840.410156 896.722656 831.460938 C 905.457031 827.449219 912.027344 821.320312 918.214844 814.589844 C 919.136719 809.519531 921.648438 804.46875 924.375 800.328125 C 934.550781 784.859375 948.042969 771.890625 955.390625 754.558594 C 961.921875 739.160156 961.667969 722.679688 965.785156 706.738281 C 968.449219 696.410156 973.507812 683.28125 985 679.960938 C 993.449219 677.511719 1003.679688 680.621094 1012.53125 685.511719 C 1013.890625 683.199219 1015.441406 681.039062 1017.371094 679.171875 C 1028.390625 668.511719 1043.769531 675.53125 1053.800781 683.761719 C 1059.011719 688.039062 1069.089844 695.699219 1076.140625 690.890625 C 1079.429688 688.648438 1079.179688 684.339844 1078.441406 680.871094 C 1076.839844 673.261719 1071.96875 665.800781 1066.308594 660.578125 C 1063.761719 658.230469 1060.25 656.191406 1056.78125 655.640625 C 1055.738281 655.46875 1054.671875 655.378906 1053.609375 655.359375 C 1053.53125 655.359375 1051.800781 655.429688 1052.039062 655.148438 C 1055.828125 650.648438 1064.839844 651.269531 1069.238281 653.839844 C 1080.039062 660.160156 1088.359375 671.761719 1092.011719 683.550781 C 1092.660156 685.671875 1093.050781 687.878906 1093.078125 690.109375 C 1093.269531 703.269531 1078.398438 704.078125 1068.640625 702.171875 C 1065.089844 701.46875 1061.621094 700.269531 1058.398438 698.609375 C 1049.089844 693.851562 1034.441406 680.539062 1024.960938 692.238281 C 1024.640625 692.628906 1024.339844 693.03125 1024.050781 693.449219 C 1025.179688 694.410156 1026.230469 695.371094 1027.191406 696.308594 C 1031.410156 700.480469 1034.511719 705.621094 1038.570312 709.949219 C 1053.941406 726.320312 1075.601562 734.378906 1097.769531 727.410156 C 1116.660156 721.480469 1112.839844 682.058594 1114.660156 668.96875 C 1115.621094 662.039062 1113.921875 653.488281 1108.691406 648.839844 C 1098.96875 640.191406 1080.179688 628.589844 1056.339844 617.078125 C 966.683594 573.800781 963.941406 609.730469 892.3125 659.800781 C 869.617188 675.660156 847.574219 684.839844 829.632812 706.800781 C 813.320312 726.769531 752.382812 825.820312 746.0625 852.910156 C 742.152344 869.671875 739.582031 889.011719 745.632812 905.570312 C 750.976562 920.210938 765.925781 927.5 775.054688 939.351562 C 788.855469 957.261719 797.773438 978.640625 811.410156 996.609375 C 826.027344 1015.871094 845.652344 1031 859.488281 1050.808594 C 888.960938 1093.03125 875.75 1150.859375 892.878906 1198.011719 C 903.898438 1228.351562 924.089844 1251.640625 942.292969 1274.660156 C 949.726562 1242.480469 971.042969 1221.171875 988.824219 1187.910156 C 996.914062 1172.78125 1000.761719 1157.230469 1001.75 1140.21875 C 1002.730469 1123.449219 1003.191406 1116.378906 1003.269531 1116.421875 C 1007.378906 1118.691406 1008.871094 1129.730469 1009.359375 1133.558594 C 1011.421875 1149.730469 1008.960938 1165.609375 1006.121094 1181.511719 C 1000.339844 1213.878906 980.015625 1238.699219 969.925781 1269.300781 C 966.089844 1280.941406 964.40625 1293.171875 964.25 1305.519531 C 968.472656 1312.628906 972.09375 1319.980469 974.824219 1327.75 C 981.53125 1346.800781 985.394531 1366.859375 992.046875 1386.011719 C 1006.921875 1428.828125 1036.089844 1471.929688 1022.328125 1518.957031 C 1020.558594 1525.007812 1018.261719 1530.773438 1015.570312 1536.328125 C 1041.558594 1535.308594 1069.660156 1544.242188 1096.328125 1542.414062 C 1110.78125 1541.421875 1126.28125 1536.117188 1139.050781 1529.378906 C 1143.300781 1527.140625 1147.589844 1524.890625 1151.660156 1522.332031 C 1153.800781 1520.980469 1157.28125 1517.6875 1157.328125 1517.792969 C 1158.429688 1519.992188 1150.53125 1526.824219 1149.429688 1527.890625 C 1138.898438 1538.105469 1124.351562 1546.300781 1110.5 1550.828125 C 1079.828125 1560.847656 1058.828125 1553.332031 1029.011719 1555.996094 C 1017.921875 1556.984375 1007.398438 1560.570312 997.480469 1565.46875 C 991.59375 1573.535156 985.363281 1581.390625 979.371094 1589.324219 C 977.554688 1591.730469 975.746094 1594.152344 973.988281 1596.613281 Z M 1363.039062 709.328125 C 1362.960938 708.679688 1363.320312 708.371094 1364.320312 708.570312 L 1364.46875 710.210938 C 1363.988281 709.921875 1363.519531 709.628906 1363.039062 709.328125 "/>
</svg>
